# xmcd
#
# Track frame offsets:
#	150
#	12897
#	25898
#	36218
#	47796
#	59158
#	76333
#	88237
#	101080
#	115569
#	130147
#	142293
#
# Disc length: 2063 seconds
#
# Revision: 1
# Processed by: cddbd v1.5.2PL0 Copyright (c) Steve Scherf et al.
# Submitted via: audiograbber 1.83.01
#
DISCID=a6080d0c
DTITLE=Various Artist - Country Music: Hits From the 70's [CD2]
DYEAR=2011
DGENRE=Country
TTITLE0=Charlie Rich - The Most Beautiful Girl
TTITLE1=Lynn Anderson - Rose Garden
TTITLE2=Tommy Cash - Rise and Shine
TTITLE3=Barbara Fairchild - Cheatin' Is
TTITLE4=Freddy Fender - Before the Next Teardrop Falls
TTITLE5=Kenny Rogers - Something's Burning
TTITLE6=Donna Fargo - Funny Face
TTITLE7=Faron Young - It's Four in the Morning
TTITLE8=Charlie Louvin and Tammy Wynette - If I Could Hear My Mother Pray Again
TTITLE9=Don Gibson - Woman (Sensuous Woman)
TTITLE10=Johnny Rodriguez - Love Put a Song in My Heart
TTITLE11=Stonewall Jackson - Me and You and a Dog Named Boo
EXTD=
EXTT0=
EXTT1=
EXTT2=
EXTT3=
EXTT4=
EXTT5=
EXTT6=
EXTT7=
EXTT8=
EXTT9=
EXTT10=
EXTT11=
PLAYORDER=
